<svg xmlns="http://www.w3.org/2000/svg" width="22" height="32" viewBox="0 0 22 32">
  <metadata><?xpacket begin="﻿" id="W5M0MpCehiHzreSzNTczkc9d"?>
<x:xmpmeta xmlns:x="adobe:ns:meta/" x:xmptk="Adobe XMP Core 5.6-c142 79.160924, 2017/07/13-01:06:39        ">
   <rdf:RDF xmlns:rdf="http://www.w3.org/1999/02/22-rdf-syntax-ns#">
      <rdf:Description rdf:about=""/>
   </rdf:RDF>
</x:xmpmeta>
                                                                                                    
                                                                                                    
                                                                                                    
                                                                                                    
                                                                                                    
                                                                                                    
                                                                                                    
                                                                                                    
                                                                                                    
                                                                                                    
                                                                                                    
                                                                                                    
                                                                                                    
                                                                                                    
                                                                                                    
                                                                                                    
                                                                                                    
                                                                                                    
                                                                                                    
                                                                                                    
                           
<?xpacket end="w"?></metadata>
<defs>
    <style>
      .cls-1 {
        fill: #666d89;
        fill-rule: evenodd;
      }
    </style>
  </defs>
  <path id="bulb" class="cls-1" d="M390,925a11,11,0,0,0-11,11c0,4.031,3.689,8.3,5.031,12.055,2,5.6,1.782,8.945,5.969,8.945,4.25,0,3.965-3.334,5.969-8.922C397.316,944.319,401,940,401,936A11,11,0,0,0,390,925Zm2.593,27.176-4.959.62c-0.177-.513-0.367-1.112-0.6-1.893,0-.01-0.007-0.022-0.009-0.032l6.189-.773c-0.088.3-.183,0.606-0.264,0.884C392.821,951.431,392.7,951.821,392.593,952.176Zm-5.857-2.268q-0.271-.9-0.615-1.908h7.766c-0.122.36-.245,0.719-0.352,1.059ZM390,955a1.737,1.737,0,0,1-2-1.25l4.238-.53C391.628,954.873,391.181,955,390,955Zm4.672-9h-9.333c-0.5-1.079-1.1-2.16-1.686-3.217-1.3-2.335-2.653-4.75-2.653-6.783a9,9,0,0,1,18,0c0,2.018-1.35,4.446-2.655,6.795C395.76,943.849,395.167,944.926,394.672,946ZM390,930a6.006,6.006,0,0,0-6,6,0.5,0.5,0,0,0,1,0,5.006,5.006,0,0,1,5-5A0.5,0.5,0,0,0,390,930Z" transform="translate(-379 -925)"/>
</svg>
